<svg width="34" height="26" viewBox="0 0 34 26" fill="none" xmlns="http://www.w3.org/2000/svg">
<path d="M30.5999 0.00012207H3.39988C1.52988 0.00012207 0.0168779 1.46262 0.0168779 3.25012L-0.00012207 22.7501C-0.00012207 24.5376 1.52988 26.0001 3.39988 26.0001H30.5999C32.4699 26.0001 33.9999 24.5376 33.9999 22.7501V3.25012C33.9999 1.46262 32.4699 0.00012207 30.5999 0.00012207ZM29.9199 6.90637L17.9009 14.0889C17.3569 14.4139 16.6429 14.4139 16.0989 14.0889L4.07988 6.90637C3.90941 6.8149 3.76014 6.69132 3.64109 6.54311C3.52204 6.3949 3.43568 6.22514 3.38726 6.0441C3.33883 5.86306 3.32933 5.67452 3.35934 5.48987C3.38936 5.30522 3.45825 5.12832 3.56186 4.96986C3.66546 4.8114 3.80163 4.67469 3.96211 4.56799C4.1226 4.46129 4.30406 4.38683 4.49552 4.34911C4.68698 4.31139 4.88446 4.31119 5.076 4.34854C5.26754 4.38588 5.44917 4.45999 5.60988 4.56637L16.9999 11.3751L28.3899 4.56637C28.5506 4.45999 28.7322 4.38588 28.9238 4.34854C29.1153 4.31119 29.3128 4.31139 29.5042 4.34911C29.6957 4.38683 29.8772 4.46129 30.0376 4.56799C30.1981 4.67469 30.3343 4.8114 30.4379 4.96986C30.5415 5.12832 30.6104 5.30522 30.6404 5.48987C30.6704 5.67452 30.6609 5.86306 30.6125 6.0441C30.5641 6.22514 30.4777 6.3949 30.3587 6.54311C30.2396 6.69132 30.0903 6.8149 29.9199 6.90637Z" fill="#F7FBFB"/>
</svg>
