<svg width="40" height="40" viewBox="0 0 40 40" fill="none" xmlns="http://www.w3.org/2000/svg">
<path d="M13 3.3335H27C32.3333 3.3335 36.6667 7.66683 36.6667 13.0002V27.0002C36.6667 29.5639 35.6482 32.0227 33.8354 33.8355C32.0225 35.6484 29.5638 36.6668 27 36.6668H13C7.66667 36.6668 3.33333 32.3335 3.33333 27.0002V13.0002C3.33333 10.4364 4.35178 7.97765 6.16463 6.1648C7.97748 4.35195 10.4362 3.3335 13 3.3335ZM12.6667 6.66683C11.0754 6.66683 9.54924 7.29897 8.42402 8.42419C7.29881 9.54941 6.66667 11.0755 6.66667 12.6668V27.3335C6.66667 30.6502 9.35 33.3335 12.6667 33.3335H27.3333C28.9246 33.3335 30.4508 32.7014 31.576 31.5761C32.7012 30.4509 33.3333 28.9248 33.3333 27.3335V12.6668C33.3333 9.35016 30.65 6.66683 27.3333 6.66683H12.6667ZM28.75 9.16683C29.3025 9.16683 29.8324 9.38632 30.2231 9.77702C30.6138 10.1677 30.8333 10.6976 30.8333 11.2502C30.8333 11.8027 30.6138 12.3326 30.2231 12.7233C29.8324 13.114 29.3025 13.3335 28.75 13.3335C28.1975 13.3335 27.6676 13.114 27.2769 12.7233C26.8862 12.3326 26.6667 11.8027 26.6667 11.2502C26.6667 10.6976 26.8862 10.1677 27.2769 9.77702C27.6676 9.38632 28.1975 9.16683 28.75 9.16683ZM20 11.6668C22.2101 11.6668 24.3298 12.5448 25.8926 14.1076C27.4554 15.6704 28.3333 17.79 28.3333 20.0002C28.3333 22.2103 27.4554 24.3299 25.8926 25.8927C24.3298 27.4555 22.2101 28.3335 20 28.3335C17.7899 28.3335 15.6702 27.4555 14.1074 25.8927C12.5446 24.3299 11.6667 22.2103 11.6667 20.0002C11.6667 17.79 12.5446 15.6704 14.1074 14.1076C15.6702 12.5448 17.7899 11.6668 20 11.6668ZM20 15.0002C18.6739 15.0002 17.4021 15.5269 16.4645 16.4646C15.5268 17.4023 15 18.6741 15 20.0002C15 21.3262 15.5268 22.598 16.4645 23.5357C17.4021 24.4734 18.6739 25.0002 20 25.0002C21.3261 25.0002 22.5979 24.4734 23.5355 23.5357C24.4732 22.598 25 21.3262 25 20.0002C25 18.6741 24.4732 17.4023 23.5355 16.4646C22.5979 15.5269 21.3261 15.0002 20 15.0002Z" fill="#F7FBFB"/>
</svg>
