<svg width="15" height="27" viewBox="0 0 15 27" fill="none" xmlns="http://www.w3.org/2000/svg">
<path d="M13.7441 27C13.4131 26.9956 13.0958 26.8694 12.8544 26.6462L0.366064 14.3413C0.131557 14.108 0 13.7929 0 13.4645C0 13.1362 0.131557 12.8211 0.366064 12.5878L12.8544 0.282823C13.097 0.0866045 13.405 -0.0136711 13.7186 0.00150102C14.0321 0.0166731 14.3287 0.146208 14.5506 0.36491C14.7726 0.583613 14.9041 0.875844 14.9195 1.18476C14.9348 1.49368 14.8331 1.7972 14.6339 2.03628L3.01983 13.4645L14.6339 24.8928C14.8684 25.1261 15 25.4411 15 25.7695C15 26.0979 14.8684 26.4129 14.6339 26.6462C14.3925 26.8694 14.0751 26.9956 13.7441 27Z" fill="#A3A5A3"/>
</svg>
