<svg width="56" height="58" viewBox="0 0 56 58" fill="none" xmlns="http://www.w3.org/2000/svg">
<path d="M51.0912 11.0416L32.9088 1.11921C31.5862 0.39747 29.843 0 28 0C26.157 0 24.4138 0.39747 23.0912 1.11921L4.90884 11.0416C2.15607 12.5443 0 16.0742 0 19.0776V38.9255C0 41.9294 2.15607 45.4593 4.90884 46.9615L23.0912 56.8813C24.4138 57.603 26.157 58 28 58C29.843 58 31.5862 57.6025 32.9088 56.8813L51.0912 46.9569C53.8439 45.4546 56 41.9248 56 38.9208V19.073C56 16.0767 53.8439 12.5443 51.0912 11.0416ZM5.92442 45.2943C3.81526 44.1436 2.0328 41.2257 2.0328 38.9229V30.4409C8.50646 29.9594 12.3414 31.5802 17.1297 33.6176C21.4385 35.4518 26.6201 37.6526 35.0873 38.8383C33.5055 39.1255 31.9074 39.3894 30.3159 39.6513C21.6692 41.0773 13.4917 42.4352 9.02081 46.9837L5.92442 45.2943ZM33.2361 28.0298C29.3292 29.498 24.2404 30.8136 16.7146 31.3379C13.3875 29.9408 10.2202 28.7603 6.07059 28.4876L19.8961 15.4205L30.1135 25.0779L33.2361 28.0298ZM32.2701 24.3999L42.2111 15.0039L49.6834 22.0667C45.3822 22.4368 42.3714 23.8772 39.034 25.4825C37.8706 26.0419 36.6341 26.6348 35.2569 27.223L32.2701 24.3999ZM53.9661 38.9229C53.9661 41.2257 52.1842 44.1436 50.0739 45.2943L31.8911 55.2172C30.8908 55.7652 29.4727 56.0817 28 56.0817C26.5273 56.0817 25.1092 55.7678 24.1078 55.2198L10.8245 47.9683C14.925 44.14 22.585 42.8765 30.665 41.5433C39.7736 40.0426 49.1505 38.4924 53.9672 32.934L53.9661 38.9229ZM53.9661 29.3433C51.8286 33.7253 46.9667 36.0225 41.1731 37.533C31.1918 36.8484 25.31 34.8925 20.4889 32.9247C30.347 31.8086 35.624 29.2737 39.9541 27.1915C44.2183 25.1408 47.6348 23.5091 53.9661 23.9751V29.3433ZM53.9661 22.0476C53.4496 22.0115 52.9445 21.9857 52.4607 21.9749L42.931 12.9666C42.8367 12.8774 42.7247 12.8066 42.6014 12.7583C42.4781 12.71 42.3459 12.6852 42.2124 12.6852C42.079 12.6852 41.9468 12.71 41.8235 12.7583C41.7002 12.8066 41.5882 12.8774 41.4938 12.9666L30.8362 23.0415L20.6155 13.3831C20.5211 13.2939 20.4091 13.2231 20.2858 13.1749C20.1625 13.1266 20.0303 13.1017 19.8969 13.1017C19.7634 13.1017 19.6313 13.1266 19.508 13.1749C19.3847 13.2231 19.2726 13.2939 19.1783 13.3831L3.23765 28.452C2.84549 28.4649 2.44569 28.484 2.03771 28.5128V19.0787C2.03771 16.7758 3.82016 13.8574 5.92933 12.7067L24.1127 2.78385C25.1163 2.23585 26.535 1.92189 28.0049 1.92189C29.4748 1.92189 30.8957 2.23585 31.8971 2.78385L50.0799 12.7067C52.1902 13.8584 53.9721 16.7758 53.9721 19.0787L53.9661 22.0476Z" fill="#F7FBFB"/>
</svg>
