<svg width="40" height="40" viewBox="0 0 40 40" fill="none" xmlns="http://www.w3.org/2000/svg">
<path d="M26.7691 2.00012H13.2306C12.1086 2.00012 11.0325 2.43113 10.239 3.19832C9.44562 3.96552 8.99988 5.00605 8.99988 6.09103V33.9092C8.99988 34.9942 9.44562 36.0347 10.239 36.8019C11.0325 37.5691 12.1086 38.0001 13.2306 38.0001H26.7691C27.8912 38.0001 28.9673 37.5691 29.7607 36.8019C30.5541 36.0347 30.9999 34.9942 30.9999 33.9092V6.09103C30.9999 5.00605 30.5541 3.96552 29.7607 3.19832C28.9673 2.43113 27.8912 2.00012 26.7691 2.00012ZM19.9999 36.3638C18.5953 36.3638 17.4614 35.2674 17.4614 33.9092C17.4614 32.551 18.5953 31.4547 19.9999 31.4547C21.4045 31.4547 22.5383 32.551 22.5383 33.9092C22.5383 35.2674 21.4045 36.3638 19.9999 36.3638ZM27.6153 29.8183H12.3845V6.90921H27.6153V29.8183Z" fill="#F7FBFB"/>
</svg>
