<svg width="15" height="27" viewBox="0 0 15 27" fill="none" xmlns="http://www.w3.org/2000/svg">
<path d="M1.25585 27C1.58685 26.9956 1.90422 26.8694 2.14564 26.6462L14.6339 14.3413C14.8684 14.108 15 13.7929 15 13.4645C15 13.1362 14.8684 12.8211 14.6339 12.5878L2.14564 0.282823C1.903 0.0866045 1.59496 -0.0136711 1.28144 0.00150102C0.967919 0.0166731 0.671333 0.146208 0.449372 0.36491C0.227412 0.583613 0.0959473 0.875844 0.0805483 1.18476C0.0651503 1.49368 0.166922 1.7972 0.366064 2.03628L11.9802 13.4645L0.366064 24.8928C0.131557 25.1261 9.53674e-07 25.4411 9.53674e-07 25.7695C9.53674e-07 26.0979 0.131557 26.4129 0.366064 26.6462C0.607491 26.8694 0.924854 26.9956 1.25585 27Z" fill="#5B86A1"/>
</svg>
