<svg width="26" height="26" viewBox="0 0 26 26" fill="none" xmlns="http://www.w3.org/2000/svg">
<path d="M12.0592 0.715909C12.3553 -0.238638 13.6447 -0.238635 13.9408 0.715912L16.3315 8.42192C16.464 8.84881 16.8438 9.13783 17.2724 9.13783H25.0088C25.9672 9.13783 26.3656 10.4222 25.5903 11.0121L19.3314 15.7747C18.9847 16.0385 18.8396 16.5062 18.972 16.9331L21.3627 24.6391C21.6588 25.5936 20.6157 26.3874 19.8404 25.7974L13.5815 21.0349C13.2347 20.771 12.7653 20.771 12.4185 21.0349L6.1596 25.7974C5.3843 26.3874 4.34115 25.5936 4.63729 24.6391L7.02798 16.9331C7.16042 16.5062 7.01534 16.0385 6.66861 15.7747L0.409683 11.0121C-0.365614 10.4222 0.0328391 9.13783 0.991158 9.13783H8.72762C9.15619 9.13783 9.53603 8.84881 9.66846 8.42192L12.0592 0.715909Z" fill="#F7FBFB"/>
</svg>
