<svg aria-hidden="true" style="position: absolute; width: 0; height: 0; overflow: hidden;" version="1.1" xmlns="http://www.w3.org/2000/svg" xmlns:xlink="http://www.w3.org/1999/xlink">
<defs>
<symbol id="icon-facebook" viewBox="0 0 32 32">
<path fill="#f7fbfb" style="fill: var(--color1, #f7fbfb)" d="M16 2.72c-7.333 0-13.333 5.987-13.333 13.36 0 6.667 4.88 12.2 11.253 13.2v-9.333h-3.387v-3.867h3.387v-2.947c0-3.347 1.987-5.187 5.040-5.187 1.453 0 2.973 0.253 2.973 0.253v3.293h-1.68c-1.653 0-2.173 1.027-2.173 2.080v2.507h3.707l-0.6 3.867h-3.107v9.333c3.142-0.496 6.003-2.099 8.067-4.52s3.194-5.499 3.187-8.68c0-7.373-6-13.36-13.333-13.36z"></path>
</symbol>
<symbol id="icon-instagram" viewBox="0 0 32 32">
<path fill="#f7fbfb" style="fill: var(--color1, #f7fbfb)" d="M10.4 2.667h11.2c4.267 0 7.733 3.467 7.733 7.733v11.2c0 2.051-0.815 4.018-2.265 5.468s-3.417 2.265-5.468 2.265h-11.2c-4.267 0-7.733-3.467-7.733-7.733v-11.2c0-2.051 0.815-4.018 2.265-5.468s3.417-2.265 5.468-2.265zM10.133 5.333c-1.273 0-2.494 0.506-3.394 1.406s-1.406 2.121-1.406 3.394v11.733c0 2.653 2.147 4.8 4.8 4.8h11.733c1.273 0 2.494-0.506 3.394-1.406s1.406-2.121 1.406-3.394v-11.733c0-2.653-2.147-4.8-4.8-4.8h-11.733zM23 7.333c0.442 0 0.866 0.176 1.178 0.488s0.488 0.736 0.488 1.179c0 0.442-0.176 0.866-0.488 1.178s-0.736 0.488-1.178 0.488c-0.442 0-0.866-0.176-1.178-0.488s-0.488-0.736-0.488-1.178c0-0.442 0.176-0.866 0.488-1.179s0.736-0.488 1.178-0.488zM16 9.333c1.768 0 3.464 0.702 4.714 1.953s1.953 2.946 1.953 4.714c0 1.768-0.702 3.464-1.953 4.714s-2.946 1.953-4.714 1.953c-1.768 0-3.464-0.702-4.714-1.953s-1.953-2.946-1.953-4.714c0-1.768 0.702-3.464 1.953-4.714s2.946-1.953 4.714-1.953zM16 12c-1.061 0-2.078 0.421-2.828 1.172s-1.172 1.768-1.172 2.828c0 1.061 0.421 2.078 1.172 2.828s1.768 1.172 2.828 1.172 2.078-0.421 2.828-1.172c0.75-0.75 1.172-1.768 1.172-2.828s-0.421-2.078-1.172-2.828c-0.75-0.75-1.768-1.172-2.828-1.172z"></path>
</symbol>
<symbol id="icon-right" viewBox="0 0 18 32">
<path fill="#5b86a1" style="fill: var(--color2, #5b86a1)" d="M1.488 32c0.392-0.005 0.768-0.155 1.055-0.419l14.801-14.584c0.278-0.276 0.434-0.65 0.434-1.039s-0.156-0.763-0.434-1.039l-14.801-14.584c-0.288-0.233-0.653-0.351-1.024-0.333s-0.723 0.172-0.986 0.431c-0.263 0.259-0.419 0.606-0.437 0.972s0.102 0.726 0.338 1.009l13.765 13.545-13.765 13.545c-0.278 0.276-0.434 0.65-0.434 1.039s0.156 0.763 0.434 1.039c0.286 0.265 0.662 0.414 1.055 0.419z"></path>
</symbol>
<symbol id="icon-star" viewBox="0 0 32 32">
<path fill="#f7fbfb" style="fill: var(--color1, #f7fbfb)" d="M14.842 0.881c0.364-1.175 1.951-1.175 2.316 0l2.942 9.484c0.163 0.525 0.631 0.881 1.158 0.881h9.522c1.18 0 1.67 1.581 0.716 2.307l-7.703 5.862c-0.427 0.325-0.605 0.9-0.442 1.426l2.942 9.484c0.364 1.175-0.919 2.152-1.874 1.426l-7.703-5.862c-0.427-0.325-1.005-0.325-1.431 0l-7.703 5.862c-0.954 0.726-2.238-0.251-1.874-1.426l2.942-9.484c0.163-0.525-0.016-1.101-0.442-1.426l-7.703-5.862c-0.954-0.726-0.464-2.307 0.716-2.307h9.522c0.527 0 0.995-0.356 1.158-0.881l2.942-9.484z"></path>
</symbol>

<symbol id="icon-telegram" viewBox="0 0 32 32">
<path  style="fill: var(--color1, #f7fbfb)" d="M15.992 2.667c-2.637 0-5.215 0.782-7.408 2.247s-3.902 3.548-4.911 5.984c-1.009 2.436-1.273 5.117-0.759 7.704s1.784 4.962 3.649 6.827c1.865 1.865 4.24 3.135 6.827 3.649s5.267 0.25 7.704-0.759c2.436-1.009 4.519-2.718 5.984-4.911s2.247-4.771 2.247-7.408c0-1.751-0.345-3.485-1.015-5.102s-1.652-3.088-2.89-4.326c-1.238-1.238-2.708-2.22-4.326-2.89s-3.352-1.015-5.102-1.015zM20.232 22.869c-0.050 0.125-0.126 0.237-0.222 0.33s-0.212 0.164-0.339 0.208c-0.127 0.044-0.261 0.061-0.395 0.050s-0.263-0.052-0.38-0.118l-3.62-2.813-2.323 2.144c-0.054 0.040-0.117 0.065-0.183 0.075s-0.134 0.001-0.197-0.023l0.445-3.985 0.013 0.012 0.009-0.079c0 0 6.513-5.931 6.779-6.183 0.269-0.252 0.18-0.307 0.18-0.307 0.016-0.307-0.481 0-0.481 0l-8.631 5.552-3.593-1.224c0 0-0.552-0.197-0.604-0.633-0.055-0.432 0.621-0.667 0.621-0.667l14.289-5.677c0 0 1.175-0.523 1.175 0.344l-2.544 12.995z"></path>
</symbol>

<symbol id="icon-close-black" viewBox="0 0 32 32">
<path d="M32 3.223l-3.223-3.223-12.777 12.777-12.777-12.777-3.223 3.223 12.777 12.777-12.777 12.777 3.223 3.223 12.777-12.777 12.777 12.777 3.223-3.223-12.777-12.777 12.777-12.777z"></path>
</symbol>

<symbol id="icon-Frame-3" viewBox="0 0 32 32">
<path fill="#fff" style="fill: var(--color3, #fff)" d="M32 2.667l-32 15 10.227 3.156 15.773-12.323-11.998 13.488 0.010 0.003-0.012-0.003v7.345l5.735-5.576 7.265 2.242 5-23.333z"></path>
</symbol>
</defs>
</svg>
