<svg aria-hidden="true" style="position: absolute; width: 0; height: 0; overflow: hidden;" version="1.1" xmlns="http://www.w3.org/2000/svg" xmlns:xlink="http://www.w3.org/1999/xlink">
<defs>
<symbol id="icon-menu_btn" viewBox="0 0 32 32">
<path   d="M5.299 8.001c0-0.424 0.169-0.831 0.469-1.131s0.707-0.469 1.131-0.469h19.2c0.424 0 0.831 0.169 1.131 0.469s0.469 0.707 0.469 1.131-0.169 0.831-0.469 1.131c-0.3 0.3-0.707 0.469-1.131 0.469h-19.2c-0.424 0-0.831-0.169-1.131-0.469s-0.469-0.707-0.469-1.131z"></path>
<path d="M5.299 16.001c0-0.424 0.169-0.831 0.469-1.131s0.707-0.469 1.131-0.469h19.2c0.424 0 0.831 0.169 1.131 0.469s0.469 0.707 0.469 1.131c0 0.424-0.169 0.831-0.469 1.131s-0.707 0.469-1.131 0.469h-19.2c-0.424 0-0.831-0.169-1.131-0.469s-0.469-0.707-0.469-1.131z"></path>
<path d="M5.299 24.001c0-0.424 0.169-0.831 0.469-1.131s0.707-0.469 1.131-0.469h19.2c0.424 0 0.831 0.169 1.131 0.469s0.469 0.707 0.469 1.131c0 0.424-0.169 0.831-0.469 1.131s-0.707 0.469-1.131 0.469h-19.2c-0.424 0-0.831-0.169-1.131-0.469s-0.469-0.707-0.469-1.131z"></path>
</symbol>
<symbol id="icon-close" viewBox="0 0 32 32">
<path stroke-linejoin="round" stroke-linecap="round" stroke-miterlimit="4" stroke-width="1.6" d="M24 24l-16-16M24 8l-16 16"></path>
</symbol>
<symbol id="icon-email" viewBox="0 0 42 32">
<path fill="#f7fbfb" style="fill: var(--color1, #f7fbfb)" d="M37.661 0h-33.477c-2.302 0-4.164 1.8-4.164 4l-0.021 24c0 2.2 1.883 4 4.185 4h33.477c2.302 0 4.185-1.8 4.185-4v-24c0-2.2-1.883-4-4.185-4zM36.825 8.5l-14.793 8.84c-0.67 0.4-1.548 0.4-2.218 0l-14.793-8.84c-0.21-0.113-0.394-0.265-0.54-0.447s-0.253-0.391-0.312-0.614c-0.060-0.223-0.071-0.455-0.034-0.682s0.122-0.445 0.249-0.64c0.128-0.195 0.295-0.363 0.493-0.495s0.421-0.223 0.657-0.269c0.236-0.046 0.479-0.047 0.714-0.001s0.459 0.137 0.657 0.268l14.019 8.38 14.018-8.38c0.198-0.131 0.421-0.222 0.657-0.268s0.479-0.046 0.714 0.001c0.236 0.046 0.459 0.138 0.657 0.269s0.365 0.3 0.493 0.495 0.212 0.413 0.249 0.64c0.037 0.227 0.025 0.459-0.034 0.682s-0.166 0.432-0.312 0.614c-0.147 0.182-0.33 0.335-0.54 0.447z"></path>
</symbol>
<symbol id="icon-instagram" viewBox="0 0 32 32">
<path fill="#f7fbfb" style="fill: var(--color1, #f7fbfb)" d="M10.4 2.667h11.2c4.267 0 7.733 3.467 7.733 7.733v11.2c0 2.051-0.815 4.018-2.265 5.468s-3.417 2.265-5.468 2.265h-11.2c-4.267 0-7.733-3.467-7.733-7.733v-11.2c0-2.051 0.815-4.018 2.265-5.468s3.417-2.265 5.468-2.265zM10.133 5.333c-1.273 0-2.494 0.506-3.394 1.406s-1.406 2.121-1.406 3.394v11.733c0 2.653 2.147 4.8 4.8 4.8h11.733c1.273 0 2.494-0.506 3.394-1.406s1.406-2.121 1.406-3.394v-11.733c0-2.653-2.147-4.8-4.8-4.8h-11.733zM23 7.333c0.442 0 0.866 0.176 1.178 0.488s0.488 0.736 0.488 1.179c0 0.442-0.176 0.866-0.488 1.178s-0.736 0.488-1.178 0.488c-0.442 0-0.866-0.176-1.178-0.488s-0.488-0.736-0.488-1.178c0-0.442 0.176-0.866 0.488-1.179s0.736-0.488 1.178-0.488zM16 9.333c1.768 0 3.464 0.702 4.714 1.953s1.953 2.946 1.953 4.714c0 1.768-0.702 3.464-1.953 4.714s-2.946 1.953-4.714 1.953c-1.768 0-3.464-0.702-4.714-1.953s-1.953-2.946-1.953-4.714c0-1.768 0.702-3.464 1.953-4.714s2.946-1.953 4.714-1.953zM16 12c-1.061 0-2.078 0.421-2.828 1.172s-1.172 1.768-1.172 2.828c0 1.061 0.421 2.078 1.172 2.828s1.768 1.172 2.828 1.172 2.078-0.421 2.828-1.172c0.75-0.75 1.172-1.768 1.172-2.828s-0.421-2.078-1.172-2.828c-0.75-0.75-1.768-1.172-2.828-1.172z"></path>
</symbol>
<symbol id="icon-facebook" viewBox="0 0 32 32">
<path fill="#f7fbfb" style="fill: var(--color1, #f7fbfb)" d="M16 2.72c-7.333 0-13.333 5.987-13.333 13.36 0 6.667 4.88 12.2 11.253 13.2v-9.333h-3.387v-3.867h3.387v-2.947c0-3.347 1.987-5.187 5.040-5.187 1.453 0 2.973 0.253 2.973 0.253v3.293h-1.68c-1.653 0-2.173 1.027-2.173 2.080v2.507h3.707l-0.6 3.867h-3.107v9.333c3.142-0.496 6.003-2.099 8.067-4.52s3.194-5.499 3.187-8.68c0-7.373-6-13.36-13.333-13.36z"></path>
</symbol>
<symbol id="icon-left" viewBox="0 0 18 32">
<path d="M16.289 32c-0.392-0.005-0.768-0.155-1.054-0.419l-14.801-14.584c-0.278-0.276-0.434-0.65-0.434-1.039s0.156-0.763 0.434-1.039l14.801-14.584c0.288-0.233 0.653-0.351 1.024-0.333s0.723 0.172 0.986 0.431c0.263 0.259 0.419 0.606 0.437 0.972s-0.102 0.726-0.338 1.009l-13.765 13.545 13.765 13.545c0.278 0.276 0.434 0.65 0.434 1.039s-0.156 0.763-0.434 1.039c-0.286 0.265-0.662 0.414-1.055 0.419z"></path>
</symbol>
<symbol id="icon-logo" viewBox="0 0 31 32">
<path fill="#f7fbfb" style="fill: var(--color1, #f7fbfb)" d="M28.188 6.092l-10.032-5.474c-0.73-0.398-1.691-0.618-2.708-0.618s-1.979 0.219-2.708 0.618l-10.032 5.474c-1.519 0.829-2.708 2.777-2.708 4.434v10.951c0 1.657 1.19 3.605 2.708 4.434l10.032 5.473c0.73 0.398 1.691 0.617 2.708 0.617s1.979-0.219 2.708-0.617l10.032-5.476c1.519-0.829 2.708-2.776 2.708-4.434v-10.95c0-1.653-1.19-3.602-2.708-4.431zM3.269 24.99c-1.164-0.635-2.147-2.245-2.147-3.515v-4.68c3.572-0.266 5.688 0.629 8.329 1.753 2.377 1.012 5.236 2.226 9.908 2.88-0.873 0.158-1.754 0.304-2.633 0.449-4.771 0.787-9.282 1.536-11.749 4.045l-1.708-0.932zM18.337 15.465c-2.156 0.81-4.963 1.536-9.115 1.825-1.836-0.771-3.583-1.422-5.873-1.573l7.628-7.209 7.36 6.957zM17.804 13.462l5.485-5.184 4.123 3.897c-2.373 0.204-4.034 0.999-5.876 1.885-0.642 0.309-1.324 0.636-2.084 0.96l-1.648-1.558zM29.774 21.475c0 1.27-0.983 2.88-2.147 3.515l-10.032 5.475c-0.552 0.302-1.334 0.477-2.147 0.477s-1.595-0.173-2.147-0.476l-7.329-4.001c2.262-2.112 6.489-2.809 10.946-3.545 5.025-0.828 10.199-1.683 12.856-4.75l-0.001 3.304zM29.774 16.189c-1.179 2.418-3.862 3.685-7.058 4.518-5.507-0.378-8.752-1.457-11.412-2.543 5.439-0.616 8.35-2.014 10.739-3.163 2.353-1.131 4.238-2.032 7.731-1.775v2.962zM29.774 12.164c-0.285-0.020-0.564-0.034-0.831-0.040l-5.258-4.97c-0.052-0.049-0.114-0.088-0.182-0.115s-0.141-0.040-0.215-0.040c-0.074 0-0.147 0.014-0.215 0.040s-0.13 0.066-0.182 0.115l-5.88 5.559-5.639-5.329c-0.052-0.049-0.114-0.088-0.182-0.115s-0.141-0.040-0.215-0.040c-0.074 0-0.147 0.014-0.215 0.040s-0.13 0.066-0.182 0.115l-8.795 8.314c-0.216 0.007-0.437 0.018-0.662 0.034v-5.205c0-1.271 0.983-2.881 2.147-3.516l10.032-5.475c0.554-0.302 1.336-0.476 2.147-0.476s1.595 0.173 2.147 0.476l10.032 5.475c1.164 0.635 2.147 2.245 2.147 3.516l-0.003 1.638z"></path>
</symbol>
<symbol id="icon-place" viewBox="0 0 32 32">
<path fill="#f7fbfb" style="fill: var(--color1, #f7fbfb)" d="M16 2.4c-5.307 0-9.6 4.257-9.6 9.52 0 7.14 9.6 17.68 9.6 17.68s9.6-10.54 9.6-17.68c0-5.263-4.293-9.52-9.6-9.52zM16 15.32c-0.909 0-1.781-0.358-2.424-0.996s-1.004-1.502-1.004-2.404c0-0.902 0.361-1.767 1.004-2.404s1.515-0.996 2.424-0.996c0.909 0 1.781 0.358 2.424 0.996s1.004 1.502 1.004 2.404c0 0.902-0.361 1.767-1.004 2.404s-1.515 0.996-2.424 0.996z"></path>
</symbol>
<symbol id="icon-right" viewBox="0 0 18 32">
<path d="M1.488 32c0.392-0.005 0.768-0.155 1.055-0.419l14.801-14.584c0.278-0.276 0.434-0.65 0.434-1.039s-0.156-0.763-0.434-1.039l-14.801-14.584c-0.288-0.233-0.653-0.351-1.024-0.333s-0.723 0.172-0.986 0.431c-0.263 0.259-0.419 0.606-0.437 0.972s0.102 0.726 0.338 1.009l13.765 13.545-13.765 13.545c-0.278 0.276-0.434 0.65-0.434 1.039s0.156 0.763 0.434 1.039c0.286 0.265 0.662 0.414 1.055 0.419z"></path>
</symbol>
<symbol id="icon-star" viewBox="0 0 32 32">
<path fill="#f7fbfb" style="fill: var(--color1, #f7fbfb)" d="M14.842 0.881c0.364-1.175 1.951-1.175 2.316 0l2.942 9.484c0.163 0.525 0.631 0.881 1.158 0.881h9.522c1.18 0 1.67 1.581 0.716 2.307l-7.703 5.862c-0.427 0.325-0.605 0.9-0.442 1.426l2.942 9.484c0.364 1.175-0.919 2.152-1.874 1.426l-7.703-5.862c-0.427-0.325-1.005-0.325-1.431 0l-7.703 5.862c-0.954 0.726-2.238-0.251-1.874-1.426l2.942-9.484c0.163-0.525-0.016-1.101-0.442-1.426l-7.703-5.862c-0.954-0.726-0.464-2.307 0.716-2.307h9.522c0.527 0 0.995-0.356 1.158-0.881l2.942-9.484z"></path>
</symbol>
<symbol id="icon-telegram" viewBox="0 0 32 32">
<path fill="#f7fbfb" style="fill: var(--color1, #f7fbfb)" d="M15.992 2.667c-2.637 0-5.215 0.782-7.408 2.247s-3.902 3.548-4.911 5.984c-1.009 2.436-1.273 5.117-0.759 7.704s1.784 4.962 3.649 6.827c1.865 1.865 4.24 3.135 6.827 3.649s5.267 0.25 7.704-0.759c2.436-1.009 4.519-2.718 5.984-4.911s2.247-4.771 2.247-7.408c0-1.751-0.345-3.485-1.015-5.102s-1.652-3.088-2.89-4.326c-1.238-1.238-2.708-2.22-4.326-2.89s-3.352-1.015-5.102-1.015zM20.232 22.869c-0.050 0.125-0.126 0.237-0.222 0.33s-0.212 0.164-0.339 0.208c-0.127 0.044-0.261 0.061-0.395 0.050s-0.263-0.052-0.38-0.118l-3.62-2.813-2.323 2.144c-0.054 0.040-0.117 0.065-0.183 0.075s-0.134 0.001-0.197-0.023l0.445-3.985 0.013 0.012 0.009-0.079c0 0 6.513-5.931 6.779-6.183 0.269-0.252 0.18-0.307 0.18-0.307 0.016-0.307-0.481 0-0.481 0l-8.631 5.552-3.593-1.224c0 0-0.552-0.197-0.604-0.633-0.055-0.432 0.621-0.667 0.621-0.667l14.289-5.677c0 0 1.175-0.523 1.175 0.344l-2.544 12.995z"></path>
</symbol>
<symbol id="icon-Vector" viewBox="0 0 37 32">
<path stroke-linejoin="round" stroke-linecap="round" stroke-miterlimit="4" stroke-width="2.6667" d="M35.333 2.667l-23.333 26.667-10-10"></path>
</symbol>
</defs>
</svg>
