<svg width="40" height="40" viewBox="0 0 40 40" fill="none" xmlns="http://www.w3.org/2000/svg">
<path d="M19.99 3.3335C16.6936 3.3335 13.4713 4.31098 10.7305 6.14234C7.98968 7.97369 5.85347 10.5767 4.59201 13.6221C3.33055 16.6675 3.00049 20.0187 3.64358 23.2517C4.28667 26.4847 5.87401 29.4544 8.20489 31.7853C10.5358 34.1162 13.5055 35.7035 16.7385 36.3466C19.9715 36.9897 23.3226 36.6596 26.3681 35.3982C29.4135 34.1367 32.0165 32.0005 33.8478 29.2597C35.6792 26.5188 36.6567 23.2965 36.6567 20.0002C36.6567 17.8115 36.2256 15.6442 35.388 13.6221C34.5504 11.6 33.3228 9.76269 31.7751 8.21505C30.2275 6.66741 28.3902 5.43975 26.3681 4.60217C24.346 3.76459 22.1787 3.3335 19.99 3.3335ZM25.29 28.5868C25.2278 28.7425 25.133 28.8831 25.012 28.9992C24.8909 29.1152 24.7465 29.204 24.5883 29.2595C24.4301 29.3151 24.2618 29.3362 24.0948 29.3214C23.9278 29.3065 23.7659 29.2561 23.62 29.1735L19.095 25.6568L16.1917 28.3368C16.1243 28.3866 16.0455 28.4186 15.9625 28.43C15.8795 28.4413 15.7949 28.4317 15.7167 28.4018L16.2733 23.4202L16.29 23.4352L16.3017 23.3368C16.3017 23.3368 24.4433 15.9235 24.775 15.6085C25.1117 15.2935 25 15.2252 25 15.2252C25.02 14.8418 24.3983 15.2252 24.3983 15.2252L13.61 22.1652L9.11833 20.6352C9.11833 20.6352 8.42833 20.3885 8.36333 19.8435C8.295 19.3035 9.14 19.0102 9.14 19.0102L27.0017 11.9135C27.0017 11.9135 28.47 11.2602 28.47 12.3435L25.29 28.5868Z" fill="#F7FBFB"/>
</svg>
